<?xml version="1.0" encoding="UTF-8"?>
<svg width="48px" height="48px" viewBox="0 0 40 50" version="1.1" xmlns="http://www.w3.org/2000/svg" xmlns:xlink="http://www.w3.org/1999/xlink">
    <!-- Generator: Sketch 61.2 (89653) - https://sketch.com -->
    <title>Cult_icon_web_blk</title>
    <desc>Created with Sketch.</desc>
    <g id="Cult_icon_web_blk" stroke="none" stroke-width="1" fill="none" fill-rule="evenodd">
        <g id="Group-6" transform="translate(10.000000, 6.000000)" fill="#000000" fill-rule="nonzero" stroke="#000000" stroke-width="0.4">
            <path d="M26.8488446,5.13868285 C26.8488446,4.0445775 25.8999298,3.13630054 24.7032563,3.13630054 C23.5068886,3.13630054 22.557668,4.0447832 22.557668,5.13868285 C22.557668,6.2325825 23.5068886,7.14106516 24.7032563,7.14106516 C25.8999298,7.14106516 26.8488446,6.2327882 26.8488446,5.13868285 Z M14.5956558,28.569158 C15.4053994,28.8982389 15.7921781,29.8144386 15.4595501,30.6155474 L14.8648552,32.0396388 C13.7744927,35.2224603 12.1318599,36.9201578 9.3225225,37.5599412 L2.08159879,39.9207823 C1.2501835,40.1918582 0.354069226,39.7448006 0.0800715438,38.9222513 C-0.193926138,38.0997021 0.257950119,37.2131437 1.08936541,36.9420679 L8.40278699,34.5575895 L8.55670188,34.515778 C10.2404939,34.1474493 11.0943367,33.2752331 11.8975082,30.9404257 L12.527209,29.42384 C12.859837,28.6227313 13.7859121,28.2400772 14.5956558,28.569158 Z M21.4167311,11.3924312 C21.4383352,11.4475696 21.4850886,11.5623629 21.5555271,11.7281158 C21.6756063,12.0106812 21.8165428,12.3271379 21.9767942,12.6687129 C22.4341837,13.6436361 22.9514263,14.6176811 23.5135003,15.5186834 C25.136463,18.1202858 26.7107384,19.4102046 27.7769853,19.1100615 C29.061504,18.748476 30.1709744,18.1997093 31.1191111,17.5146181 C31.733552,17.0706441 32.241225,16.5980255 32.6462295,16.1312402 C32.8752213,15.8673172 33.0108957,15.6789143 33.0573339,15.6027225 C33.5093717,14.8610581 34.483539,14.6223616 35.2331976,15.0695789 C35.9828562,15.5167963 36.2241255,16.4805753 35.7720878,17.2222397 C35.3096369,17.9809892 34.4039674,19.0248125 32.9888334,20.04734 C31.7460132,20.9453594 30.2998069,21.6606826 28.6445389,22.1266322 C25.6736575,22.9629203 23.1340916,20.8820684 20.8158169,17.1658836 C20.3584479,16.432723 19.9324935,15.6663118 19.5405295,14.8909596 C19.3203722,15.1859346 19.1040684,15.490937 18.8946881,15.8040709 C17.7814994,17.4688743 17.0442523,19.094779 16.8451291,20.5290664 C16.6759881,21.747392 16.9017002,22.7599216 17.5725434,23.6159915 C18.0137463,24.1790151 20.1650392,25.288411 23.0112778,26.4334427 C25.8602109,27.5795852 27.7565589,30.2240089 27.8455304,33.2068705 L27.9856362,37.8902256 C28.0115338,38.7559121 27.3231862,39.4784598 26.4481688,39.5040813 C25.5731514,39.5297027 24.8428155,38.8486955 24.8169179,37.9830091 L24.676808,33.2995174 C24.6252433,31.5707575 23.5142353,30.0214766 21.8171462,29.3387277 C18.3342727,27.93758 16.0076446,26.7377659 15.0671774,25.5376258 C13.8399516,23.9715502 13.4254708,22.1122174 13.7045089,20.1023013 C13.9792627,18.1232452 14.8984751,16.0960395 16.2507496,14.0736769 C16.8036185,13.2468466 17.3936924,12.4758848 17.9845523,11.7783345 C18.3428025,11.3553959 18.6265823,11.0459114 18.799391,10.8691128 C19.6034894,10.0464489 20.9986523,10.3254017 21.4167311,11.3924312 Z M12.7008903,10.3910613 C13.5762908,10.3910613 14.2859432,11.0931461 14.2859432,11.9592116 C14.2859432,12.825277 13.5762908,13.5273618 12.7008903,13.5273618 C12.5733713,13.5273618 12.289809,13.5480995 11.907182,13.613392 C11.2598036,13.7238623 10.6149057,13.9219471 10.027333,14.2227421 C8.66766681,14.9187933 7.79735896,16.0497667 7.55078469,17.8590387 C7.43381253,18.7173377 6.63569933,19.3193131 5.76814896,19.2035883 C4.9005986,19.0878635 4.29213474,18.2982612 4.4091069,17.4399622 C4.80003952,14.5714413 6.32877081,12.5848403 8.57045938,11.4372571 C10.1113715,10.648421 11.6195508,10.3910613 12.7008903,10.3910613 Z M24.7032563,0 C27.6277156,0 30.0189504,2.28882878 30.0189504,5.13868285 C30.0189504,7.98853692 27.6277156,10.2773657 24.7032563,10.2773657 C21.7791681,10.2773657 19.3875622,7.98840081 19.3875622,5.13868285 C19.3875622,2.28896489 21.7791681,0 24.7032563,0 Z" id="cult"></path>
        </g>
    </g>
</svg>