<?xml version="1.0" encoding="UTF-8"?>
<svg width="48px" height="48px" viewBox="0 0 40 50" version="1.1" xmlns="http://www.w3.org/2000/svg" xmlns:xlink="http://www.w3.org/1999/xlink">
    <!-- Generator: Sketch 61.2 (89653) - https://sketch.com -->
    <title>Mind_icon_web_blk</title>
    <desc>Created with Sketch.</desc>
    <g id="Mind_icon_web_blk" stroke="none" stroke-width="1" fill="none" fill-rule="evenodd">
        <g id="mind-2" transform="translate(12.000000, 6.000000)" fill="#000000" fill-rule="nonzero" stroke="#000000" stroke-width="0.5">
            <path d="M4.52475728,38 L26.4792203,37.9435853 C28.0936055,37.9435853 29.6015947,37.0601349 30.4143956,35.637642 C31.2188125,34.2293962 31.2579771,32.6551599 30.1321813,30.9787914 C29.2660313,29.6888441 27.8234327,28.9185821 26.2710354,28.918541 L25.1136523,28.8847001 C24.9661207,28.8828805 24.832255,28.9806913 24.778074,29.1327899 L24.0587753,31.1398546 C23.9667489,31.3976117 24.1415541,31.6715843 24.3907041,31.6720488 L26.2738527,31.6750178 C27.0090263,31.6750178 27.6803392,32.0191469 28.0686698,32.5970919 C28.518353,33.2671983 28.5462369,33.6627343 28.2446263,34.1902058 C27.8921841,34.8064196 27.2152834,35.1877434 26.4761533,35.1877431 L4.5214449,35.2435643 C3.78458985,35.2435643 3.10783374,34.8620423 2.75548154,34.2466113 C2.45383302,33.7190734 2.481836,33.3235305 2.93200026,32.6534993 C3.32034307,32.0749128 3.9917164,31.7302449 4.72661795,31.7302451 L6.19937801,31.7272757 C6.44831883,31.7272757 6.62317843,31.453541 6.53113541,31.1962155 L5.82729597,29.2212224 C5.77363919,29.0712526 5.64082389,28.9732154 5.49509414,28.9732152 L4.72681254,28.974403 C3.17646625,28.974403 1.73373098,29.744976 0.867920297,31.0352234 C-0.258121918,32.7114608 -0.218954039,34.2859736 0.586246021,35.6946092 C1.39953331,37.1167902 2.90801014,38 4.52475728,38 Z M13.9470499,26.1808867 C13.9475563,26.9383392 14.5089388,27.5489744 15.1970736,27.5484287 C15.8852455,27.5478822 16.4461318,26.9360895 16.4456258,26.1786544 L16.4418342,20.0869307 C16.4413278,19.3293545 15.8798289,18.7182531 15.1918105,18.7187987 C14.5034069,18.7193449 13.9427521,19.3313948 13.9432583,20.0891584 L13.9470499,26.1808867 Z M19.1312043,33.2322792 C19.6102795,33.2413985 20.0476973,32.9627194 20.2567852,32.5137618 C21.3360812,30.1951947 22.248979,27.7063599 22.6367986,25.5179246 C23.4791923,20.7471859 23.4518085,17.7827118 22.0208495,14.9901175 C20.8306874,12.6683103 19.1153086,11.5927273 16.6040733,11.5927273 L15.0114951,11.5927273 C12.7740566,11.5927273 10.9167535,12.3532907 9.63634685,13.7907662 C8.1412595,15.4706783 7.46729241,17.9696541 7.69202989,21.0208102 C7.93058616,24.2588333 9.18728403,28.4424726 10.7597528,32.4231137 C10.9600098,32.931781 11.4401284,33.2587717 11.9693232,33.2492863 C12.866385,33.2323843 13.472603,32.289971 13.141957,31.4195804 C11.5893638,27.3304976 10.4556901,23.4920974 10.2579923,20.8152854 C10.0924833,18.5671756 10.5392196,16.7206778 11.5228042,15.6165097 C12.3157795,14.7262693 13.4917528,14.275991 15.0114951,14.275991 L16.6040733,14.275991 C18.1522308,14.275991 19.0150499,14.8187951 19.7510376,16.254571 C20.8539743,18.407792 20.8349053,20.9009991 20.1050923,25.0317559 C19.8029475,26.7384336 19.0334931,29.0039412 18.0248924,31.4522664 C17.6808985,32.2868427 18.2607671,33.2161775 19.1312043,33.2322792 Z M15.7800084,2.77903462 L15.8161622,2.77903462 C16.3534879,2.77903462 16.8600634,2.99548152 17.2459896,3.38990765 C17.6396442,3.79178198 17.8617878,4.33214319 17.8716444,4.91026022 C17.8906561,6.10533612 16.9851119,7.09556181 15.8491331,7.11575451 L15.8148165,7.11575451 C15.2768033,7.11575451 14.7701965,6.89929423 14.3850503,6.50494395 C13.9910239,6.10340837 13.7691994,5.56317936 13.7593342,4.98381021 C13.750183,4.40578604 13.9547191,3.85729812 14.3348906,3.44214055 C14.7158045,3.02542674 15.2299761,2.78952552 15.7800084,2.77903462 Z M12.5668257,8.50553099 C13.4452787,9.40323737 14.5943935,9.8942326 15.8134707,9.89353696 C15.834058,9.89353696 15.834058,9.89353696 15.8542307,9.89353696 C15.8741961,9.89327741 15.8741961,9.89327741 15.8945133,9.89284047 C17.1431644,9.87056916 18.3077475,9.33626115 19.1762341,8.38708353 C20.0452753,7.4366025 20.5119073,6.18612855 20.4907755,4.86364983 C20.4696425,3.54109624 19.9627021,2.30749859 19.0634541,1.38994269 C18.1533877,0.459936836 16.9777943,-0.0351912356 15.7365191,0.00194768058 C14.4870681,0.0249296824 13.3220294,0.559105989 12.4540967,1.50767823 C11.5853117,2.45860112 11.1184208,3.70995163 11.1402032,5.0311393 C11.1613414,6.3540182 11.6678263,7.58753167 12.5668257,8.50553099 Z" id="mind"></path>
        </g>
    </g>
</svg>